<?xml version="1.0"?>
<svg xmlns="http://www.w3.org/2000/svg" id="Layer_5" enable-background="new 0 0 64 64" height="512px" viewBox="0 0 64 64" width="512px" class=""><g><g><g><g><path d="m44 19h-24c-1.654 0-3-1.346-3-3v-12c0-1.654 1.346-3 3-3h24c1.654 0 3 1.346 3 3v12c0 1.654-1.346 3-3 3z" fill="#f0bc5e" data-original="#F0BC5E" class="active-path" style="fill:#2083F8" data-old_color="#f0bc5e"/></g></g><g><path d="m34.052 34.316c.085.255 2.083 6.068 7.974 8.393.126 2.135.879 8.495 5.35 12.072l.625.5v-21.281h-14.055z" fill="#f0bc5e" data-original="#F0BC5E" class="active-path" style="fill:#2083F8" data-old_color="#f0bc5e"/></g><g><path d="m16 34v21.281l.625-.5c4.471-3.577 5.224-9.938 5.35-12.072 5.891-2.324 7.889-8.138 7.974-8.393l.105-.316z" fill="#f0bc5e" data-original="#F0BC5E" class="active-path" style="fill:#2083F8" data-old_color="#f0bc5e"/></g><g><path d="m23.854 15h.291c1.575 0 2.855-1.28 2.855-2.854 0-1.088-.604-2.065-1.578-2.553l-1.949-.975c-.292-.145-.473-.438-.473-.764 0-.47.384-.854.854-.854h.291c.471 0 .855.384.855.854v.146h2v-.146c0-1.574-1.28-2.854-2.854-2.854h-.291c-1.575 0-2.855 1.28-2.855 2.854 0 1.088.604 2.065 1.578 2.553l1.949.975c.292.145.473.438.473.764 0 .47-.384.854-.854.854h-.291c-.471 0-.855-.384-.855-.854v-.146h-2v.146c0 1.574 1.28 2.854 2.854 2.854z" data-original="#000000" class="" style="fill:#000000" data-old_color="#000000"/><path d="m31 11h1c1.654 0 3-1.346 3-3s-1.346-3-3-3h-3v10h2zm0-4h1c.552 0 1 .448 1 1s-.448 1-1 1h-1z" data-original="#000000" class="" style="fill:#000000" data-old_color="#000000"/><path d="m37.469 13h3.062l.492 2.217 1.953-.434-2.174-9.783h-3.604l-2.175 9.783 1.953.434zm1.729-6 .888 4h-2.173l.888-4z" data-original="#000000" class="" style="fill:#000000" data-old_color="#000000"/><path d="m61 57.184v-28.948l2.118-4.236-6.5-13h-9.618v5c0 .458-.111.887-.295 1.276l1.907 5.724h-9.765l-.667-4h-2.027l.666 4h-9.639l.666-4h-2.026l-.667 4h-9.765l1.908-5.724c-.185-.389-.296-.818-.296-1.276v-5h-9.618l-6.5 13 2.118 4.236v28.948c-1.161.414-2 1.514-2 2.816v3h62v-3c0-1.302-.839-2.402-2-2.816zm-1.618-30.184h-6.764l-1-2h8.764zm-.382 2v28h-2v-28zm-11.613-16h7.995l5 10h-9.661zm.995 12-1 2h-6.764l-1-2zm-12 0-1 2h-6.764l-1-2zm-12 0-1 2h-6.764l-1-2zm.236 4 1.382-2.764 1.382 2.764h9.236l1.382-2.764 1.382 2.764h9.236l1.382-2.763 1.382 2.763h3.618v28h-6v-22h2v-2h-38v2h2v22h-6v-28h3.618l1.382-2.763 1.382 2.763zm6.35 6c-.324 8.024-4.515 15.287-11.371 19.572l-2.597 1.624v-21.196zm-10.31 21.268c5.631-3.52 9.598-8.899 11.342-15.083 1.744 6.184 5.711 11.563 11.342 15.083l1.172.732h-25.028zm12.374-21.268h13.968v21.196l-2.598-1.624c-6.855-4.285-11.047-11.548-11.37-19.572zm-26.032-6v28h-2v-28zm1.618-16h7.995l-3.334 10h-9.661zm3.764 12-1 2h-6.764l-1-2zm48.618 36h-58v-1c0-.552.448-1 1-1h56c.552 0 1 .448 1 1z" data-original="#000000" class="" style="fill:#000000" data-old_color="#000000"/></g></g></g> </svg>
